<?xml version="1.0" encoding="utf-8"?>
<!-- Generator: Adobe Illustrator 26.3.1, SVG Export Plug-In . SVG Version: 6.00 Build 0)  -->
<svg version="1.1" id="Layer_1" xmlns="http://www.w3.org/2000/svg" xmlns:xlink="http://www.w3.org/1999/xlink" x="0px" y="0px"
	 viewBox="0 0 100 100" style="enable-background:new 0 0 100 100;" xml:space="preserve">
<style type="text/css">
	.st0{fill-rule:evenodd;clip-rule:evenodd;fill:#474747;}
	.st1{fill-rule:evenodd;clip-rule:evenodd;fill:#231F20;}
</style>
<g>
	<g>
		<path class="st0" d="M39.3,77.4c0,0-13.5-1.7-13.8-2.4c-0.3-0.6-3.5-19.3-4.2-27c-0.8-7.7-0.5-16.6-0.5-16.6s9.1-2.8,9.6-1.9
			s0,6.4,1.1,6.7c1.1,0.3,8.8,0.3,9.1-0.6c0.3-0.9-0.6-7.8,0.5-8.2c1.1-0.3,14.3-1.1,14.6,0s-0.3,6,0.5,6.6s9.1,0.3,10.2-0.2
			s0.6-5.6,1.4-6.4s9.9,0.3,11.5,2.7s-0.5,22.4-1.1,26.2c-0.6,3.8-2.7,17.1-3.6,17.7s-14.7,2.2-14.4,2.7s3.3,2.2,3.3,2.2
			s6.1,1.6,6.7,2.4s-1.1,4.5-2.4,4.9c-1.3,0.3-7.2,1.7-17.1,1.4c-9.9-0.3-17.4-0.3-19-1.4c-1.6-1.1-3.3-5.8-2.4-5.6
			C30.2,80.7,39.3,77.4,39.3,77.4z"/>
	</g>
	<g>
		<path class="st1" d="M28.1,29.8c0,0-2.5,12,0.3,25.2s7.3,17,8.6,18.1s5.1,2.9,5.1,2.9s-1.5,3.4-1.4,5.7c0.1,3.6,4,5.6,4,5.6
			s-12.4-0.1-13.1-1.1c-0.7-1-2.5-5.2-1.8-5.4c0.7-0.3,11.4-2.4,11.1-3.2s-15-1.8-15.7-3.3s-4.3-20.8-4.4-24.9
			c-0.1-4.2,0-18.1,0-18.1S25.1,29.7,28.1,29.8z"/>
	</g>
	<path d="M79.7,29.8c-1-2.1-10.9-3.9-12.5-3.4c-1,0.4-1.2,2-1.4,5.8c0,0.5,0,1-0.1,1.4c0,0.1,0,0.2,0,0.3c-1.8,0.2-7.7,0.1-9.1-0.2
		c0-0.3,0-0.8,0-1.2c0-0.3,0-0.7,0-1c0.1-2.8,0.2-4.7-1.2-4.9c-3.6-0.5-11.3-0.7-14.6,0.2c-1.1,0.3-1.1,1.6-0.9,6
		c0.1,0.9,0.1,1.9,0.1,2.5c-1.4,0.3-6.4,0.6-7.9,0.4c0-0.2,0-0.5-0.1-0.8c0-0.4,0-0.8-0.1-1.2c-0.3-3.6-0.5-5.1-1.7-5.1
		c-3.3,0-6.8,0.7-10,2c-0.7,0.2-1.1,0.3-0.9,7.7c0.1,3.8,0.3,8,0.5,10.2c0.8,9.6,3.9,26.1,5,27.1c0.7,0.7,7,1.7,15.5,2
		c-7.2,0.6-11.6,2-12.1,2.8c-0.2,0.3-0.1,0.7,0.1,1.5c0.2,0.8,2,5,3,5.3c0.8,0.3,8.2,1.5,17.9,1.5h0c9.5,0,17.4-0.8,18.4-1.3
		c1-0.6,3.2-3.6,3.5-5.3c0.1-0.6,0-1.1-0.3-1.4c-0.7-0.8-5.3-2.4-13.3-3.2c9.2-0.5,16.2-1.6,17-2.2c1.1-1.1,3.3-12.9,3.8-17.8
		C79.5,48.7,80.6,31.8,79.7,29.8z M73.8,74c-1.2,0.5-11.8,2-24.7,2.1c-12.8,0.1-21.6-1.3-23.1-1.7c-0.8-2-3.6-15.5-4.5-25.9
		c-0.4-4.6-0.7-14.3-0.4-16.3c2.9-1.1,5.9-1.8,8.6-1.8c0.1,0.5,0.3,1.8,0.4,3.5c0.2,2.4,0.3,3,0.8,3.3c1,0.6,8.1,0.1,9.6-0.3
		c0.4-0.1,0.9-0.2,1-0.6c0.3-0.4,0.3-1,0.2-3.6c-0.1-1.9-0.1-3.6-0.1-4.3c3.2-0.7,10-0.6,13.3-0.2c0.1,0.5,0.1,1.7,0.1,2.5
		c0,0.3,0,0.5,0,0.7c-0.1,2.2-0.1,3,0.4,3.5c0.8,0.7,5.9,0.7,10.1,0.6c1.2,0,1.4-0.1,1.8-0.5c0.2-0.4,0.4-0.9,0.5-2.9
		c0-1.5,0.2-3.7,0.4-4.2c1.7-0.2,9.8,1.7,10.2,2.5c0.5,1,0.1,13.7-1.3,26.9C76.4,63.9,74.4,73,73.8,74z M30.2,81.4
		c1.7-0.7,8.3-2.4,20-2.2c11.9,0.1,18.5,2.1,19.5,2.8c-0.1,0.7-2,3.6-2.6,4c-0.5,0.2-7.4,1.2-17.6,1.2h-0.1
		c-9.2,0-16.3-1.1-17.1-1.4C31.9,85.3,30.5,82.6,30.2,81.4z"/>
</g>
</svg>
