<?xml version="1.0" encoding="utf-8"?>
<!-- Generator: Adobe Illustrator 26.3.1, SVG Export Plug-In . SVG Version: 6.00 Build 0)  -->
<svg version="1.1" id="Layer_1" xmlns="http://www.w3.org/2000/svg" xmlns:xlink="http://www.w3.org/1999/xlink" x="0px" y="0px"
	 viewBox="0 0 100 100" style="enable-background:new 0 0 100 100;" xml:space="preserve">
<style type="text/css">
	.st0{fill-rule:evenodd;clip-rule:evenodd;fill:#474747;}
	.st1{fill-rule:evenodd;clip-rule:evenodd;fill:#231F20;}
</style>
<g>
	<g>
		<path class="st0" d="M56.8,26.5c0,0-3.5-4.4-4.9-6s-5.4-3.2-5.4-3.2l-0.8,8.2L26.3,50.6c0,0-4.2,0.5-5.1,2.5s2.3,6.5,5.2,9
			s5.6,3.1,5.6,3.1s3.9-6.7,5.9-5.6c2,1.1,5.3,8.1,6.4,11c1.1,2.8,2.7,7.8,2.7,7.8s-11.2,1.9-12,3s3.3,5.7,3.3,5.7S51.8,88,56,87.8
			s14.9,0.1,15.8-0.6s4.7-5.8,3.3-6.4c-1.4-0.6-11.3-2.1-13.7-2.1s0.5-3.1,2.5-6.6c2-3.5,9.3-17.3,8-24.5S67.4,34.1,63.7,31
			C59.9,27.8,56.8,26.5,56.8,26.5z"/>
	</g>
	<g>
		<path class="st1" d="M46.1,20.2c0,0,3.7,2.3,5,4.1s1.8,4.1,1.8,4.1s8,3,10.9,10.4c2.9,7.4,2.8,16.7-1.1,24.3s-7.3,9.3-9.9,10.4
			c-2.6,1.1-6.6,0.5-6.6,0.5l1.7,4.8l10.7-0.5c0,0,13.3-11.6,13.2-29.6c-0.1-9.3-5-16.1-8-18.5c-3.7-3-7-4.9-6.8-4.2
			c0,0-2.2-4.4-4-5.7c-1.8-1.4-6.4-3.5-6.4-3.5L46.1,20.2z"/>
	</g>
	<g>
		<path class="st1" d="M64.4,79c0,0,0.9,2.7,0.4,3.9c-1,2.5-5.4,5-5.4,5s10.7,0.7,12.2-0.5s4.1-6.7,3.2-7.1
			C73.9,79.9,64.4,79,64.4,79z"/>
	</g>
	<path d="M78.8,39.4l-0.2-1l-0.9,0.2c-3,0.5-5.6,0.4-5.9,0c-0.1-0.7,1.8-3.3,3.8-5.1l0.5-0.5l-0.6-0.8c-1.4-1.7-4.2-5-8.1-7.4
		c-5.9-3.6-13.3-4.8-14.3-4.9c-2.7-2.5-5.9-3.6-6.7-3.6c-1.1,0-1.3,0.7-1.6,6.6c0,0.7-0.1,1.6-0.1,2c0,0.1,0,0.1,0,0.2
		c-1.3,2-18.3,24.1-19.1,24.7c-0.9,0.7-1.9,1.1-2.9,1.3l-0.1,0.1c-1.1,0.4-2,0.7-2.4,1.6c-1.1,2.6,0.1,5.3,4,9.4
		c2.7,2.8,6.5,4,7.6,4c0.7,0,1.1-0.6,1.7-1.5l0.2-0.4c0.9-1.5,2.4-3.8,4-3.7c0.6,0,2.8,3,5.3,8.7c1.5,3.7,2.6,7.4,3,8.8
		c-7.1,0.7-11.2,2.1-11.8,2.9c-0.3,0.3-0.4,0.8-0.3,1.3c0.3,1.6,2.7,5.3,3.8,5.7c0.4,0.2,1,0.7,18.1,0.9H59c8.5,0,12.4-0.4,13-0.7
		c1.1-0.4,3.5-5.7,3.7-6.4l0-0.1c0.1-0.4,0.2-0.8-0.1-1.2c-0.4-0.7-3.3-1.7-8.8-2.3c2.5-2.7,6.6-7.9,10.1-15.5
		C81.2,53.5,79.4,42.6,78.8,39.4z M54.9,79.4h0.8c11.2,0,16.7,1.3,18.2,2c-0.5,1.4-2.4,4.9-2.7,5.2c-0.3,0.1-3.9,0.7-15.4,0.6
		c-15.2-0.2-17.2-0.6-17.4-0.7c-0.5-0.3-2.6-3.5-2.9-4.4C36.7,81.4,43.2,79.5,54.9,79.4z M30.1,58.4c-1.6-1.5-4.6,0.4-5.6,1.1
		c-2.3-2.7-3-4.6-2.4-6c0.1-0.1,0.8-0.5,1.5-0.7l0.5-0.2c0.9-0.3,1.9-0.7,2.7-1.3c0.3-0.2,1.8-1.8,9.7-12.1c1.3,1.2,3.2,2.8,4.3,3.1
		c0.8,0.1,1.5-0.4,2-0.8c0.9-0.8,1.7-2.2,1.6-3.3c0-0.2-0.1-0.8-4.1-3.9l1.8-2.4c2.2-2.9,4.1-5.4,4.4-5.7l0.1-0.1
		c0.1-0.2,0.1-0.5,0.2-1.8l0.1-1c0-0.4,0-0.8,0.1-1.3c0.1-1.2,0.1-2.7,0.3-3.5c1.1,0.4,3.4,1.5,5.3,3.4c2.4,2.4,3.5,5.1,3.5,5.1
		l0.2,0.3l0.3,0.2c0.1,0,6.4,2.5,10.3,8.6c5.4,8.5,4.3,16.3,2.8,22.1v0c-3,11.3-10.5,18.5-11.7,19.7c-0.9,0-1.9,0-2.9,0
		c-2.4,0-4.8,0.1-7.1,0.3c-0.4-1.3-1.5-5.3-3.2-9.3l-0.1-0.1c-1.9-4.3-4.6-9.4-6.8-9.6c-0.1,0-0.2,0-0.3,0c-2.5,0-4.3,3-5.3,4.6
		c-0.2,0.4-0.4,0.7-0.6,1c-0.4-0.1-1-0.2-1.7-0.5C30.7,62.2,31.4,59.7,30.1,58.4z"/>
</g>
</svg>
