<svg enable-background="new 0 0 100 100" viewBox="0 0 100 100" xmlns="http://www.w3.org/2000/svg"><g clip-rule="evenodd" fill-rule="evenodd"><path d="m14.6 41.9c1.1 0 10.7 6.4 11.8 6.4s7.1-15.1 7.8-14.9c.8.2 14.1 14.1 14.9 14.1s12.1-14.7 13.2-14.6 7.5 15.8 8.3 16.2c.8.3 14.3-9.4 15.1-8.6s-6 19.1-9.1 23.5-10.7 15.1-10.7 15.1 8.5.6 8.8 2.1-1.7 5-2.5 5.5-21.3 1.4-25.1 1.3c-3.8-.2-18.7-1.1-19.5-1.7s-3-5.2-2.4-5.2 10.8-2.5 10.8-2.5-9.9-11.5-14-17.6-7.4-19.1-7.4-19.1z" fill="#474747"/><path d="m24 47c.2.5.1 9.3 10.4 17.9 15.2 12.7 34.3 9.8 34.3 9.8l-3.1 4s-15.4-.2-19-.2-7.1.7-7.1.7-.5 1.7.2 3.5c1.2 3.5 5.3 4.9 5.3 4.9s-7.9.5-12.9.1c-4.5-.4-4-.7-4-.7l-3.3-5.3s3.8-1.7 6.9-2.1 4.8-1 4.8-1-5.1-4.1-13.4-16.4-8.9-21.2-8.9-21.2z" fill="#231f20"/><circle cx="48.9" cy="25.9" fill="#fff" r="9.5"/></g><path d="m67.1 78.2c1.6-1.9 4.9-5.9 8.4-11.1 7.4-10.9 12-25.6 11.3-27.5-.1-.3-.4-.5-.7-.6-1.1-.2-7 3.8-8.1 4.6-1.4.9-2.7 1.9-3.8 2.8-1.1.8-2.4 1.9-3.1 2.3-.6-1.3-2.1-5.1-3.3-8.1-1.1-2.6-3.7-8.6-5-8.8-.9-.1-1.7.7-6.7 6.9-2 2.4-6.1 7.5-7 7.9-1-.3-5.9-5.4-8.2-7.9-5.3-5.6-6.2-6.4-7.1-6.2l-.5.1-.3.4c-2.1 4-3.6 7.9-4.6 10.6-.6 1.6-1.3 3.5-1.6 4-.7-.3-2.9-1.9-3.8-2.5-2.5-1.8-5.6-4-8.3-5.1-.4-.2-.9-.1-1.2.3-1.4 1.6 4.1 15 7.5 20.7 4.7 7.6 11.6 15.2 13.7 17.3-6.4.9-10.3 2.3-10.7 2.9-.2.4-.1.8 0 1.1.4 1.1 2.9 5.1 3.8 5.4.7.3 9.5 1.1 20 1.1h1.9c3.6 0 21.6-.2 22.9-.9 1.1-.5 3.1-4.1 3.5-5.7.1-.6.1-1.1-.2-1.5-.8-.7-3.2-1.7-8.8-2.5zm7.1 3.5c-.1.8-2 4.3-2.5 4.6-.7.3-10 .6-22.2.8-11.2.1-20.2-.8-21.2-1-.4-.4-2.1-2.9-2.7-4 2.4-1 11.6-3.1 24.5-3 17.1 0 23.2 2 24.1 2.6zm-51.8-21.7c-3.5-5.7-6.8-14.8-7.4-17.9 2.3 1.2 4.8 3 6.8 4.4 3.2 2.3 4.6 3.3 5.6 2.7.8-.5 1.3-1.8 2.5-5 1-2.6 2.3-6 4.2-9.7 1.1.9 3.4 3.4 5.3 5.4 6.2 6.5 8.3 8.5 9.6 8.4 1.1-.1 2.9-2.1 8.3-8.6 1.7-2.1 4-5 5.1-5.9.7 1.1 2.3 4.1 3.6 7.4 3 7.5 3.5 8.8 3.9 9.1.9.8 2.1-.1 5.3-2.5 1.1-.9 2.4-1.8 3.8-2.8 2.4-1.6 4.8-3.1 6.1-3.8-.7 3.6-4.4 15.3-11 25-4.2 6.1-8.1 10.7-9.1 11.8-3.7-.4-8.6-.7-14.9-.8-5.2 0-9.8.3-13.6.7-1.4-1.5-9.2-10-14.1-17.9z"/><path d="m48.8 15.5c-5.7 0-10.3 4.6-10.3 10.3s4.6 10.3 10.3 10.3 10.3-4.6 10.3-10.3-4.6-10.3-10.3-10.3zm0 18.9c-4.7 0-8.6-3.8-8.6-8.6s3.8-8.6 8.6-8.6c4.7 0 8.6 3.8 8.6 8.6s-3.8 8.6-8.6 8.6z"/></svg>