<?xml version="1.0" encoding="utf-8"?>
<!-- Generator: Adobe Illustrator 26.3.1, SVG Export Plug-In . SVG Version: 6.00 Build 0)  -->
<svg version="1.1" id="Layer_1" xmlns="http://www.w3.org/2000/svg" xmlns:xlink="http://www.w3.org/1999/xlink" x="0px" y="0px"
	 viewBox="0 0 100 100" style="enable-background:new 0 0 100 100;" xml:space="preserve">
<style type="text/css">
	.st0{fill-rule:evenodd;clip-rule:evenodd;fill:#FFFFFF;}
	.st1{fill-rule:evenodd;clip-rule:evenodd;fill:#CCCCCC;}
	.st2{fill-rule:evenodd;clip-rule:evenodd;fill:#474747;}
</style>
<g>
	<g>
		<path class="st0" d="M16.4,47.4c1.3-2.7,12.7-9.5,33.1-10c20.3-0.6,26.8-0.3,34,4.6c3.9,2.7-3.9,17.8-7.5,23.8S67.6,79,67.6,79
			s6.9,1,7.3,2.8s-2,4.9-2,4.9S57.3,87.8,50.3,88s-22.4-1.6-22.4-1.6S24.4,83,25,81.9s9.3-2.7,9.3-2.7S24.7,66,22,62.3
			C19.4,58.5,16.4,47.4,16.4,47.4z"/>
	</g>
	<g>
		<path class="st1" d="M24,41.9c0,0-2.8,10.1,3.6,19.2s11,12.4,22.4,13.1c12.7,0.8,22.9-3.4,22.6-2.7s-4.3,7.3-4.3,7.3
			s-16.5-1.1-22.1-0.9s-6.6,1-6.6,1s-0.7,2.3,0.7,4.2c2.1,3,8.2,4.5,8.2,4.5s-6.9-0.1-12.8-0.4s-7.5-0.5-7.5-0.5l-2.9-5.1
			c0,0,2.3-0.8,5.8-1.7s4.2-0.8,4.2-0.8S27.6,72.2,21.2,61s-5.4-13-4.7-14.1C17.1,45.9,24,41.9,24,41.9z"/>
	</g>
	<g>
		<path class="st2" d="M33.3,38.9c0,0-1.7-5-1.3-7.7c0.5-2.7,2.4-4.4,2.4-4.4s6.3,3.8,7.5,2.8c1.3-0.9-2.2-9.4-2.2-9.4
			s3-3.3,9.7-3.5s11,3.6,11,3.6S57,27.9,58,28.7c0.9,0.8,7.5-1.3,7.5-1.3s2.4,2.2,3,5.8S68,36.8,68,36.8s-8-0.3-17.6,0
			S33.3,38.9,33.3,38.9z"/>
	</g>
	<path d="M84.3,41.7L84.3,41.7c-1.5-2.6-6.8-4.3-15.7-5.2c0.7-4.8-1.3-9.6-2.8-10.1c-0.5-0.1-1.2,0.1-3,0.8
		c-3.3,1.3-4.2,1.4-4.5,1.3c0-0.3,0.3-1.5,1.9-5.1l0.1-0.2c1-1.9,1.2-2.4,1-2.8c-0.3-1.1-3.5-4.5-11.3-4.6c-5.7,0-10.3,2.8-10.8,4
		c-0.2,0.6-0.1,1.5,1,4.8c0.5,1.6,1,3.3,1.2,4.2c-1-0.3-2.9-1.2-3.6-1.5l-0.3-0.1c-2.1-0.9-2.9-1.2-3.4-1.1c-1.7,0.2-3,3.7-3,6.7
		c0,2.1,0.8,4.3,1.3,5.6c-9.7,2.4-16,6.3-17.1,8.7c-1.2,2.9,1.2,7.7,5.4,15.2c4.4,7.8,9.8,14,11.9,16.4c-4.8,0.8-8.2,1.9-8.6,2.5
		l-0.1,0.1c-0.1,0.4-0.1,0.8,0,1c0.3,1.1,2.8,5.1,3.7,5.5c0.7,0.2,9.6,1.1,20,1.1h1.9c0.2,0,21.4-0.2,22.9-0.9
		c1.1-0.5,3.2-4.1,3.5-5.7c0.1-0.7,0-1.1-0.3-1.5c-0.6-0.8-3.2-1.6-6.9-2.2c1.4-1.9,5.5-8,8.7-13.4C80.9,59.4,86.8,46.2,84.3,41.7z
		 M67,78.2c-4.4-0.6-9.9-0.9-16.5-1c-5.5,0-10.7,0.3-15.6,1c-1-1.1-7.5-8.1-12.5-16.9C19.9,56.8,16,50,17,47.7
		c1.2-2.7,14.2-9.5,32.6-10c1.9,0,3.7-0.1,5.4-0.1c15.4,0,26.1,1.9,27.8,5c1.8,3.3-2.8,14.9-6.7,21.6C72.7,70.2,67.8,77,67,78.2z
		 M42,24c-0.5-1.4-1-3-1.1-3.5c0.5-0.6,4.2-3,9.2-2.9c6.5,0.1,9.1,2.7,9.5,3.1c-0.1,0.2-0.2,0.5-0.4,0.8c-0.2,0.3-0.3,0.7-0.5,1
		c-1.8,3.7-2.9,6.4-1.6,7.5c1.2,0.9,3.4,0.2,6.3-1c0.7-0.4,1.5-0.7,1.8-0.7c0.6,0.6,2.3,4.2,1.6,8.2c-5-0.4-11-0.5-17.7-0.3
		c-5.1,0.1-10.2,0.8-15,1.8c-0.5-1.1-1.3-3.4-1.3-5.3c0-2.6,1.1-4.6,1.5-4.9c0.4,0.1,1.8,0.7,2.5,1l0.3,0.1c3.6,1.6,4.9,2.1,5.7,1.4
		C43.7,29.6,43.3,28.2,42,24z M50.3,79c16.9,0.2,23.1,2.1,24.1,2.7c0,0.8-1.9,4.2-2.5,4.5c-0.7,0.2-9.6,0.7-22.2,0.8
		c-10.9,0.1-20.1-0.8-21.1-1c-0.5-0.5-2.2-2.9-2.7-4C28.1,81.2,36.9,78.9,50.3,79z"/>
</g>
</svg>
