<?xml version="1.0" encoding="utf-8"?>
<!-- Generator: Adobe Illustrator 26.3.1, SVG Export Plug-In . SVG Version: 6.00 Build 0)  -->
<svg version="1.1" id="Layer_1" xmlns="http://www.w3.org/2000/svg" xmlns:xlink="http://www.w3.org/1999/xlink" x="0px" y="0px"
	 viewBox="0 0 100 100" style="enable-background:new 0 0 100 100;" xml:space="preserve">
<style type="text/css">
	.st0{fill-rule:evenodd;clip-rule:evenodd;fill:#FFFFFF;}
	.st1{fill-rule:evenodd;clip-rule:evenodd;fill:#CCCCCC;}
</style>
<g>
	<g>
		<path class="st0" d="M38,78.1c0,0-14.3-15.2-14.1-22.4C24,48.4,32,40.9,32,40.9l11.3,14.6c0,0,2.4-0.9,4.4-2.8c2-1.9,1.3-3,1.3-3
			L39,33.9c0,0,5-6.3,6.4-7.4S51,22,51,22s8.9,8.5,14.7,15.5s11,14.1,10.4,18.4c-0.6,4.2-3.6,10-7.1,14.3c-3.5,4.2-6.9,8.6-6.9,8.6
			s7.5,1.7,8,2.8c0.5,1.1,0.2,4.2-1.7,4.7c-1.9,0.5-11.1,2-19.5,1.7s-16.3-0.8-17.1-1.7c-0.8-0.9-2.7-5-1.9-5.6
			C30.8,80,38,78.1,38,78.1z"/>
	</g>
	<g>
		<path class="st1" d="M52.2,23c0,0-6.1,6.9-7.8,9.8c-1.7,2.8-2.7,5.4-2.7,5.4S39,34.8,39,33.6S50.2,21.7,50.6,22
			C51.1,22.2,52.2,23,52.2,23z"/>
	</g>
	<g>
		<path class="st1" d="M35.8,46.2c0,0-3,7.6-0.8,13.7s6.1,10.5,9.4,12.7c3.3,2.2,4.8,3.3,12.8,3.5c3.7,0.1,8.1-1.3,8.1-1.3l-3.6,3.8
			c0,0-13.4-1.1-17.4-0.3s-3,4-2.2,5.4c2.1,3.5,7.1,4.8,6.8,4.3c0,0-9-0.6-12.4-0.8c-3.5-0.3-5.2-1-5.2-1s-1.8-5-1.4-5.6
			s9.3-2,9.3-2s-15.4-15-15.4-22.8c0-6.5,7.2-14.5,8.2-14.8C33,40.5,35.8,46.2,35.8,46.2z"/>
	</g>
	<path d="M63.4,78.4c5.1-5.6,13.2-15.5,13.4-22.8c0.4-10.9-25.3-34.6-25.5-34.8l-0.5-0.5L50,20.8v0c-0.1,0.1-0.2,0.1-0.3,0.3
		C44.9,25,41,29,38.2,33c-0.4,0.7-0.5,0.8,5.5,9.4l0.5,0.7c1.8,2.6,4.2,6,4.5,6.8c-0.1,0.3-0.7,1.1-1.8,2.2
		c-1.5,1.4-2.7,2.2-3.2,2.4c-0.8-0.8-3.2-4.1-4.9-6.5l-0.5-0.7c-5-6.9-5.4-7.2-6-7.4c-0.3,0-0.7,0.1-1.6,0.9
		c-2.5,2.2-7.9,9.1-7.6,14.9c0.4,7.2,11.1,18.9,14.4,22.3c-5.2,0.7-8.4,1.8-8.9,2.5c-0.2,0.3-0.1,0.8,0.1,1.5c0.2,0.8,2,5,3,5.3
		c0.8,0.3,8.2,1.5,17.9,1.5h0.1c9.4,0,17.3-0.8,18.4-1.3c1-0.6,3.2-3.6,3.5-5.3c0.1-0.6,0-1.1-0.3-1.4
		C70.7,80.2,67.8,79.1,63.4,78.4z M50.4,79.2c11.9,0.1,18.5,2.1,19.5,2.8c-0.1,0.8-2,3.7-2.6,4l0,0c-0.5,0.2-7.4,1.2-17.6,1.2h-0.1
		c-9.2,0-16.3-1.1-17.1-1.4c-0.4-0.4-1.8-3.2-2.1-4.4C32.4,80.6,39,79,50.4,79.2z M48.7,52.9c1.3-1.4,1.8-2.3,1.7-3
		c0-0.7-0.9-2.1-5.4-8.4l-0.5-0.7c-1.8-2.7-4.1-6-4.7-7c1.9-2.7,5.4-6.7,10.8-11c2.7,2.5,24.8,23.6,24.4,32.9
		c-0.3,7.7-11.3,19.8-13.8,22.5c-3.4-0.5-7.1-0.7-11-0.7c-0.3,0-0.6,0-0.9,0c-3.3,0-6.5,0.1-9.4,0.4c-0.1-0.1-0.2-0.2-0.3-0.3
		C30.3,67.8,25,60,24.8,55.7l0,0c-0.4-5.6,5.6-12.3,7.3-13.8c0.9,1.1,3,4,4.7,6.5c5.8,8.1,5.9,8.1,6.6,8.1
		C45.2,56.5,47.9,53.7,48.7,52.9z"/>
</g>
</svg>
