<?xml version="1.0" encoding="utf-8"?>
<!-- Generator: Adobe Illustrator 26.3.1, SVG Export Plug-In . SVG Version: 6.00 Build 0)  -->
<svg version="1.1" id="Layer_1" xmlns="http://www.w3.org/2000/svg" xmlns:xlink="http://www.w3.org/1999/xlink" x="0px" y="0px"
	 viewBox="0 0 100 100" style="enable-background:new 0 0 100 100;" xml:space="preserve">
<style type="text/css">
	.st0{fill-rule:evenodd;clip-rule:evenodd;fill:#FFFFFF;}
	.st1{fill-rule:evenodd;clip-rule:evenodd;fill:#CCCCCC;}
	.st2{fill-rule:evenodd;clip-rule:evenodd;fill:#3F3F3F;}
</style>
<g>
	<g>
		<path class="st0" d="M14.6,41.9c1.1,0,10.7,6.4,11.8,6.4s7.1-15.1,7.8-14.9c0.8,0.2,14.1,14.1,14.9,14.1s12.1-14.7,13.2-14.6
			s7.5,15.8,8.3,16.2c0.8,0.3,14.3-9.4,15.1-8.6c0.8,0.8-6,19.1-9.1,23.5S65.9,79.1,65.9,79.1s8.5,0.6,8.8,2.1s-1.7,5-2.5,5.5
			c-0.8,0.5-21.3,1.4-25.1,1.3c-3.8-0.2-18.7-1.1-19.5-1.7c-0.8-0.6-3-5.2-2.4-5.2c0.6,0,10.8-2.5,10.8-2.5s-9.9-11.5-14-17.6
			S14.6,41.9,14.6,41.9z"/>
	</g>
	<g>
		<path class="st1" d="M24,47c0.2,0.5,0.1,9.3,10.4,17.9c15.2,12.7,34.3,9.8,34.3,9.8l-3.1,4c0,0-15.4-0.2-19-0.2s-7.1,0.7-7.1,0.7
			s-0.5,1.7,0.2,3.5c1.2,3.5,5.3,4.9,5.3,4.9s-7.9,0.5-12.9,0.1c-4.5-0.4-4-0.7-4-0.7l-3.3-5.3c0,0,3.8-1.7,6.9-2.1s4.8-1,4.8-1
			s-5.1-4.1-13.4-16.4s-8.9-21.2-8.9-21.2L24,47z"/>
	</g>
	<g>
		<circle class="st2" cx="48.9" cy="25.9" r="9.5"/>
	</g>
	<path d="M67.1,78.2c1.6-1.9,4.9-5.9,8.4-11.1c7.4-10.9,12-25.6,11.3-27.5c-0.1-0.3-0.4-0.5-0.7-0.6c-1.1-0.2-7,3.8-8.1,4.6
		c-1.4,0.9-2.7,1.9-3.8,2.8c-1.1,0.8-2.4,1.9-3.1,2.3c-0.6-1.3-2.1-5.1-3.3-8.1c-1.1-2.6-3.7-8.6-5-8.8c-0.9-0.1-1.7,0.7-6.7,6.9
		c-2,2.4-6.1,7.5-7,7.9c-1-0.3-5.9-5.4-8.2-7.9c-5.3-5.6-6.2-6.4-7.1-6.2l-0.5,0.1L33,33c-2.1,4-3.6,7.9-4.6,10.6
		c-0.6,1.6-1.3,3.5-1.6,4c-0.7-0.3-2.9-1.9-3.8-2.5c-2.5-1.8-5.6-4-8.3-5.1c-0.4-0.2-0.9-0.1-1.2,0.3c-1.4,1.6,4.1,15,7.5,20.7
		c4.7,7.6,11.6,15.2,13.7,17.3c-6.4,0.9-10.3,2.3-10.7,2.9c-0.2,0.4-0.1,0.8,0,1.1c0.4,1.1,2.9,5.1,3.8,5.4c0.7,0.3,9.5,1.1,20,1.1
		c0.6,0,1.3,0,1.9,0c3.6,0,21.6-0.2,22.9-0.9c1.1-0.5,3.1-4.1,3.5-5.7c0.1-0.6,0.1-1.1-0.2-1.5C75.1,80,72.7,79,67.1,78.2z
		 M74.2,81.7c-0.1,0.8-2,4.3-2.5,4.6c-0.7,0.3-10,0.6-22.2,0.8c-11.2,0.1-20.2-0.8-21.2-1c-0.4-0.4-2.1-2.9-2.7-4
		c2.4-1,11.6-3.1,24.5-3C67.2,79.1,73.3,81.1,74.2,81.7z M22.4,60c-3.5-5.7-6.8-14.8-7.4-17.9c2.3,1.2,4.8,3,6.8,4.4
		c3.2,2.3,4.6,3.3,5.6,2.7c0.8-0.5,1.3-1.8,2.5-5c1-2.6,2.3-6,4.2-9.7c1.1,0.9,3.4,3.4,5.3,5.4c6.2,6.5,8.3,8.5,9.6,8.4
		c1.1-0.1,2.9-2.1,8.3-8.6c1.7-2.1,4-5,5.1-5.9c0.7,1.1,2.3,4.1,3.6,7.4c3,7.5,3.5,8.8,3.9,9.1c0.9,0.8,2.1-0.1,5.3-2.5
		c1.1-0.9,2.4-1.8,3.8-2.8c2.4-1.6,4.8-3.1,6.1-3.8c-0.7,3.6-4.4,15.3-11,25C69.9,72.3,66,76.9,65,78c-3.7-0.4-8.6-0.7-14.9-0.8
		c-5.2,0-9.8,0.3-13.6,0.7C35.1,76.4,27.3,67.9,22.4,60z"/>
	<path d="M48.8,15.5c-5.7,0-10.3,4.6-10.3,10.3s4.6,10.3,10.3,10.3c5.7,0,10.3-4.6,10.3-10.3S54.5,15.5,48.8,15.5z M48.8,34.4
		c-4.7,0-8.6-3.8-8.6-8.6s3.8-8.6,8.6-8.6c4.7,0,8.6,3.8,8.6,8.6S53.6,34.4,48.8,34.4z"/>
</g>
</svg>
