<?xml version="1.0" encoding="UTF-8"?>
<svg id="_Слой_5" data-name="Слой 5" xmlns="http://www.w3.org/2000/svg" viewBox="0 0 38 38">
  <defs>
    <style>
      .cls-1 {
        fill: none;
        stroke: #000;
        stroke-miterlimit: 10;
        stroke-width: 1.5px;
      }

      .cls-2 {
        fill: #fff;
        stroke-width: 0px;
      }
    </style>
  </defs>
  <path class="cls-2" d="m11.2,33.03s-5.98-6.17-4.72-11.21c1.26-5.04,12.6-17.08,12.6-17.08,0,0,2.82,3.29,5.86,6.7.76.85-4.87,7.46-5.33,8.37s.61,3.65,1.37,3.8,6.66-8.65,6.85-8.37c1.58,2.27,4.02,5.89,3.86,7.48-.54,5.22-4.18,10.06-4.18,10.06,0,0,2.09,1.01,2.24,1.49.26.86-.86,2.73-.86,2.73H9.5s-1.21-1.99-.95-2.51,2.64-1.45,2.64-1.45Z"/>
  <path class="cls-1" d="m11.2,33.03s-5.98-6.17-4.72-11.21c1.26-5.04,12.6-17.08,12.6-17.08,0,0,2.82,3.29,5.86,6.7.76.85-4.87,7.46-5.33,8.37s.61,3.65,1.37,3.8,6.66-8.65,6.85-8.37c1.58,2.27,4.02,5.89,3.86,7.48-.54,5.22-4.18,10.06-4.18,10.06,0,0,2.09,1.01,2.24,1.49.26.86-.86,2.73-.86,2.73H9.5s-1.21-1.99-.95-2.51,2.64-1.45,2.64-1.45Z"/>
  <path class="cls-1" d="m11.2,33.03s6.63-2.53,16.31-.25"/>
</svg>