<?xml version="1.0" encoding="UTF-8"?>
<svg id="_Слой_3_копия_" data-name="Слой 3 (копия)" xmlns="http://www.w3.org/2000/svg" viewBox="0 0 38 38">
  <defs>
    <style>
      .cls-1 {
        stroke-width: 1.5px;
      }

      .cls-1, .cls-2 {
        fill: none;
        stroke: #000;
        stroke-miterlimit: 10;
      }

      .cls-3 {
        fill: #d0c9d6;
        fill-rule: evenodd;
        stroke-width: 0px;
      }

      .cls-2 {
        stroke-width: 2px;
      }
    </style>
  </defs>
  <path class="cls-3" d="m8.19,31.5S-.52,21.28.6,16.83s3.1-5.68,5.6-6.72,5.69,0,6.29.61,1.6,2.21,1.6,2.21c0,0,1.6-2.31,4.99-2.18,2.49.09,4.48,1.73,4.48,1.73,0,0,.57-1.5,4.02-2.72s7.07,1.66,7.93,3.14,2.76,4.28,1.64,6.98c-1.12,2.71-3.02,5.15-4.91,7.51s-3.36,3.84-3.36,3.84c0,0,2.24,1.05,2.59,1.66s-1.47,4.1-1.47,4.1H7.07s-1.47-3.14-1.21-3.75,2.33-1.75,2.33-1.75Z"/>
  <path class="cls-1" d="m7.91,31.75s-1.61.73-1.89,1.53,1.12,3.45,1.21,3.51,22.84.04,22.9,0,1.51-2.85,1.22-3.65-2.19-1.58-2.19-1.58c0,0-5.21-1.59-10.82-1.69-5.62-.11-10.43,1.89-10.43,1.89Z"/>
  <path class="cls-1" d="m19.32,29.36s.2-18.83,9.31-19.51c5.2-.39,9.11,4.58,8.48,8.92-.75,5.21-8.55,12.49-8.55,12.49"/>
  <path class="cls-1" d="m18.93,29.46s-.88-19.17-9.5-19.61C5.25,9.63.1,12.83.91,18.76c.71,5.21,7.19,12.49,7.19,12.49"/>
  <path class="cls-1" d="m14.1,12.93s1.73-1.98,4.55-1.98c2.48,0,4.92,1.52,4.92,1.52"/>
  <line class="cls-2" x1="19.08" y1="2.22" x2="19.08" y2="10.75"/>
  <line class="cls-2" x1="15.73" y1="5.71" x2="22.25" y2="5.71"/>
</svg>