<?xml version="1.0" encoding="UTF-8"?>
<svg id="_Слой_7" data-name="Слой 7" xmlns="http://www.w3.org/2000/svg" viewBox="0 0 38 38">
  <defs>
    <style>
      .cls-1 {
        fill: none;
        stroke: #000;
        stroke-miterlimit: 10;
        stroke-width: 1.5px;
      }

      .cls-2, .cls-3 {
        stroke-width: 0px;
      }

      .cls-3 {
        fill: #fff;
      }
    </style>
  </defs>
  <path class="cls-3" d="m17.84,22.22s.24,1.18-.61,2.55c-.72,1.17-2.34,1.97-4.55,4.34-2.86,3.07-3.57,7.63-3.39,7.74s25.16.28,25.42,0-4.6-5.12-5.07-7.78c-.47-2.67,3.62-9.28,3.03-13.24-1.06-7.15-8.92-9.99-9.39-10.15s-.65-3.34-1.44-3.66c-.78-.31-2.35,3.61-2.67,4.08-.31.47-3.74,2.69-8.81,6.16-1.01.69-5.78,3.57-5.78,3.57,0,0-1.68,3.66-1.21,4.29.11.15,1.16,1.06,1.16,1.06l1.32,1.12s.68.8,1.03.8c.94,0,3.98-1.78,5.7-1.93,1.02-.09,4.17-.06,4.63.28s.63.78.63.78Z"/>
  <path class="cls-1" d="m17.84,22.22s.06.32,0,.81c-.02.2-.07.43-.14.69-.1.32-.25.68-.48,1.05-.72,1.17-2.34,1.97-4.55,4.34-2.86,3.07-3.57,7.63-3.39,7.74s25.16.28,25.42,0-4.6-5.12-5.07-7.78c-.47-2.67,3.62-9.28,3.03-13.24-1.06-7.15-8.92-9.99-9.39-10.15s-.65-3.34-1.44-3.66c-.78-.31-2.35,3.61-2.67,4.08-.31.47-3.74,2.69-8.81,6.16-1.01.69-5.78,3.57-5.78,3.57,0,0-1.68,3.66-1.21,4.29.11.15,1.16,1.06,1.16,1.06l1.32,1.12s.68.8,1.03.8c.94,0,3.98-1.78,5.7-1.93.56-.05,1.77-.07,2.82-.01.4.02.77.05,1.08.09.35.05.62.11.73.19.16.12.29.25.38.38.17.22.24.4.24.4Z"/>
  <path class="cls-2" d="m18.17,13.13c.33-.04.71-.13.84-.43.06-.12.05-.26.03-.39-.17-.98-1.48-1.45-2.47-1.13-.51.16-2.42,1.34-2.07,2,.25.48,3.18.02,3.66-.05Z"/>
</svg>