<?xml version="1.0" encoding="UTF-8"?>
<svg id="_Слой_4" data-name="Слой 4" xmlns="http://www.w3.org/2000/svg" viewBox="0 0 38 38">
  <defs>
    <style>
      .cls-1 {
        fill: none;
        stroke: #000;
        stroke-miterlimit: 10;
        stroke-width: 1.5px;
      }

      .cls-2 {
        fill: #fff;
        stroke-width: 0px;
      }
    </style>
  </defs>
  <path class="cls-2" d="m29.72,32.25l-.1-.5s6.47-21.79,5.92-22.36c-.55-.57-7.88,9.51-8.1,9.36s-1.15-15.53-1.83-15.64c-.67-.11-5.78,14.73-6.09,14.88-.3.15-6.46-15.45-7-15.22-.54.23-.84,15.9-1.37,16.13-.53.23-8.33-10.2-8.71-9.97-.38.23,5.26,22.72,5.26,22.72l-.2.3s-1.77.76-2.24,1.51c-.47.75,1.66,3.49,1.71,3.52s23.59.02,23.61,0c.02-.02,1.5-2.39,1.2-3.23-.3-.84-2.06-1.51-2.06-1.51Z"/>
  <path class="cls-1" d="m7.5,31.95s-1.77.76-2.24,1.51,1.66,3.49,1.71,3.52,23.59.02,23.61,0,1.5-2.39,1.2-3.23-2.06-1.51-2.06-1.51c0,0-5.57-1.79-11.26-1.89-5.69-.11-10.96,1.59-10.96,1.59Z"/>
  <path class="cls-1" d="m7.7,31.65S2.06,9.16,2.44,8.93s8.18,10.2,8.71,9.97.83-15.9,1.37-16.13,6.7,15.37,7,15.22,5.53-15.44,6.2-15.32,1.48,15.93,1.71,16.08,7.55-9.93,8.1-9.36-5.92,22.36-5.92,22.36"/>
</svg>