<?xml version="1.0" encoding="UTF-8"?>
<svg id="_Слой_6" data-name="Слой 6" xmlns="http://www.w3.org/2000/svg" viewBox="0 0 38 38">
  <defs>
    <style>
      .cls-1 {
        fill: none;
        stroke: #000;
        stroke-miterlimit: 10;
        stroke-width: 1.5px;
      }

      .cls-2 {
        fill: #fff;
        fill-rule: evenodd;
        stroke-width: 0px;
      }
    </style>
  </defs>
  <path class="cls-2" d="m9.81,30.15l.7-14.93-3.58-4.02v-6.37l5.59.17.09,3.93,3.49-.09v-3.75h5.68v3.67l3.67-.09-.17-3.58,6.02.09-.17,5.5-3.41,4.8.44,15.1s3.23,1.83,3.58,2.18-.44,3.93-.44,3.93l-24.45.09s-.87-2.79-.61-3.41,3.58-3.23,3.58-3.23Z"/>
  <path class="cls-1" d="m21.89,5.08v3.7s3.56,0,3.56,0v-3.65h5.78s-.3,5.93-.3,5.93l-3.36,4.07.32,15.52s3.26,1.48,3.68,2.35-.31,3.6-.52,3.85-24.09.11-24.28,0-.86-2.19-.46-3.14,3.49-3.17,3.49-3.17l.52-15.24-3.27-4.25-.3-5.93h5.78v3.65h3.56v-3.7h5.78Z"/>
  <path class="cls-1" d="m10.19,30.25s6.07-.73,17.48.28"/>
</svg>